<svg xmlns="http://www.w3.org/2000/svg" xmlns:xlink="http://www.w3.org/1999/xlink" xmlns:lucid="lucid" width="1740" height="1039.5"><g transform="translate(-60 -40.5)" lucid:page-tab-id="0_0"><path d="M604 86.5h296V400H100V60.5h480zm-504 0h504" stroke="#000" stroke-width="2" fill="#fff"/><use xlink:href="#a" transform="matrix(1,0,0,1,108,60.5) translate(0 16.6)"/><use xlink:href="#b" transform="matrix(1,0,0,1,108,60.5) translate(75 16.6)"/><use xlink:href="#c" transform="matrix(1,0,0,1,108,60.5) translate(85 16.6)"/><path d="M140 151.75h340v157H140z" stroke="#000" stroke-width="2" fill="#fff"/><path d="M140 189.35h340m-340 59.7h340" stroke="#000" stroke-width="2" fill="none"/><use xlink:href="#d" transform="matrix(1,0,0,1,148,159.75) translate(123.07499999999999 14.6)"/><use xlink:href="#e" transform="matrix(1,0,0,1,152,197.35) translate(0 14.799999999999999)"/><use xlink:href="#f" transform="matrix(1,0,0,1,152,197.35) translate(10.95 14.799999999999999)"/><use xlink:href="#e" transform="matrix(1,0,0,1,152,197.35) translate(0 36.4)"/><use xlink:href="#g" transform="matrix(1,0,0,1,152,197.35) translate(10.95 36.4)"/><use xlink:href="#h" transform="matrix(1,0,0,1,152,257.05) translate(0 14.799999999999999)"/><use xlink:href="#i" transform="matrix(1,0,0,1,152,257.05) translate(64.95 14.799999999999999)"/><use xlink:href="#j" transform="matrix(1,0,0,1,152,257.05) translate(81.95 14.799999999999999)"/><use xlink:href="#k" transform="matrix(1,0,0,1,152,257.05) translate(0 36.4)"/><path d="M520 120.25h340v199H520z" stroke="#000" stroke-width="2" fill="#fff"/><path d="M520 157.85h340m-340 91.3h340" stroke="#000" stroke-width="2" fill="none"/><use xlink:href="#l" transform="matrix(1,0,0,1,528,128.25) translate(129.5 14.6)"/><use xlink:href="#e" transform="matrix(1,0,0,1,532,165.85) translate(0 20)"/><use xlink:href="#f" transform="matrix(1,0,0,1,532,165.85) translate(10.95 20)"/><use xlink:href="#e" transform="matrix(1,0,0,1,532,165.85) translate(0 41.6)"/><use xlink:href="#m" transform="matrix(1,0,0,1,532,165.85) translate(10.95 41.6)"/><use xlink:href="#e" transform="matrix(1,0,0,1,532,165.85) translate(0 63.2)"/><use xlink:href="#n" transform="matrix(1,0,0,1,532,165.85) translate(10.95 63.2)"/><use xlink:href="#h" transform="matrix(1,0,0,1,532,257.15) translate(0 19.799999999999997)"/><use xlink:href="#i" transform="matrix(1,0,0,1,532,257.15) translate(64.95 19.799999999999997)"/><use xlink:href="#j" transform="matrix(1,0,0,1,532,257.15) translate(81.95 19.799999999999997)"/><use xlink:href="#k" transform="matrix(1,0,0,1,532,257.15) translate(0 41.4)"/><path d="M1514 86.5h266V580h-720V60.5h432zm-454 0h454" stroke="#000" stroke-width="2" fill="#fff"/><use xlink:href="#a" transform="matrix(1,0,0,1,1068,60.5) translate(0 16.6)"/><use xlink:href="#b" transform="matrix(1,0,0,1,1068,60.5) translate(75 16.6)"/><use xlink:href="#o" transform="matrix(1,0,0,1,1068,60.5) translate(85 16.6)"/><path d="M1080 109.25h440v151h-440z" stroke="#000" stroke-width="2" fill="#fff"/><path d="M1080 168.45h440" stroke="#000" stroke-width="2" fill="none"/><use xlink:href="#p" transform="matrix(1,0,0,1,1088,117.25) translate(153.575 14.799999999999999)"/><use xlink:href="#q" transform="matrix(1,0,0,1,1088,117.25) translate(159.17499999999998 36.4)"/><use xlink:href="#r" transform="matrix(1,0,0,1,1092,176.45) translate(0 30.799999999999997)"/><use xlink:href="#e" transform="matrix(1,0,0,1,1092,176.45) translate(0 52.4)"/><use xlink:href="#s" transform="matrix(1,0,0,1,1092,176.45) translate(10.95 52.4)"/><path d="M1080 300h480v218h-480z" stroke="#000" stroke-width="2" fill="#fff"/><path d="M1080 359.2h480" stroke="#000" stroke-width="2" fill="none"/><use xlink:href="#p" transform="matrix(1,0,0,1,1088,308) translate(173.575 14.799999999999999)"/><use xlink:href="#t" transform="matrix(1,0,0,1,1088,308) translate(173.14999999999998 36.4)"/><use xlink:href="#r" transform="matrix(1,0,0,1,1092,367.2) translate(0 64.8)"/><use xlink:href="#e" transform="matrix(1,0,0,1,1092,367.2) translate(0 86.4)"/><use xlink:href="#u" transform="matrix(1,0,0,1,1092,367.2) translate(10.95 86.4)"/><path d="M1600 120.25h160v121h-160z" stroke="#000" stroke-width="2" fill="#fff"/><use xlink:href="#v" transform="matrix(1,0,0,1,1608,128.25) translate(6.075000000000003 56.1)"/><path d="M1598 180.75h-58.5" stroke="#000" stroke-width="2" fill="none"/><path d="M1599 181.75h-1.03v-2h1.03z"/><path d="M1524.24 180.75l14.26-4.64v9.3z" stroke="#000" stroke-width="2"/><path d="M1600 340h160v121h-160z" stroke="#000" stroke-width="2" fill="#fff"/><use xlink:href="#w" transform="matrix(1,0,0,1,1608,348) translate(-0.3499999999999943 56.1)"/><path d="M1598 400.5h-18.5" stroke="#000" stroke-width="2" fill="none"/><path d="M1599 401.5h-1.03v-2h1.03z"/><path d="M1564.24 400.5l14.26-4.64v9.28z" stroke="#000" stroke-width="2"/><path d="M660 526h340v534H80V500h552zm-580 0h580" stroke="#000" stroke-width="2" fill="#fff"/><use xlink:href="#a" transform="matrix(1,0,0,1,88,500) translate(0 16.6)"/><use xlink:href="#b" transform="matrix(1,0,0,1,88,500) translate(75 16.6)"/><use xlink:href="#x" transform="matrix(1,0,0,1,88,500) translate(85 16.6)"/><path d="M600 580h360v241H600z" stroke="#000" stroke-width="2" fill="#fff"/><path d="M600 639.2h360" stroke="#000" stroke-width="2" fill="none"/><use xlink:href="#p" transform="matrix(1,0,0,1,608,588) translate(113.57499999999999 14.799999999999999)"/><use xlink:href="#y" transform="matrix(1,0,0,1,608,588) translate(121.625 36.4)"/><use xlink:href="#z" transform="matrix(1,0,0,1,612,647.2) translate(0 65)"/><use xlink:href="#A" transform="matrix(1,0,0,1,612,647.2) translate(15.5 65)"/><use xlink:href="#B" transform="matrix(1,0,0,1,612,647.2) translate(195.2 65)"/><use xlink:href="#C" transform="matrix(1,0,0,1,612,647.2) translate(0 86.60000000000001)"/><use xlink:href="#D" transform="matrix(1,0,0,1,612,647.2) translate(105.9 86.60000000000001)"/><use xlink:href="#e" transform="matrix(1,0,0,1,612,647.2) translate(0 108.20000000000002)"/><use xlink:href="#E" transform="matrix(1,0,0,1,612,647.2) translate(10.95 108.20000000000002)"/><path d="M710 858h160v121H710z" stroke="#000" stroke-width="2" fill="#fff"/><g><use xlink:href="#F" transform="matrix(1,0,0,1,718,866) translate(49.55 56.1)"/></g><path d="M790 856v-15.5" stroke="#000" stroke-width="2" fill="none"/><path d="M791 857h-2v-1.03h2z"/><path d="M790 825.24l4.63 14.26h-9.27z" stroke="#000" stroke-width="2"/><path d="M871.3 917.54l198.8-657.6" stroke="#000" stroke-width="2" fill="none"/><path d="M872.25 917.8l-1.16 3.86-.1-.03v-4.2z"/><path d="M1078.6 231.85l9.9 18.5-18.6 10.22-9.82-18.8z" stroke="#000" stroke-width="2"/><path d="M871.38 917.57L1072 426.13" stroke="#000" stroke-width="2" fill="none"/><path d="M872.3 917.93l-1.3 3.22v-3.76z"/><path d="M1077.78 412l-1.1 14.96-8.6-3.5z" stroke="#000" stroke-width="2"/><path d="M120 580h420v219H120z" stroke="#000" stroke-width="2" fill="#fff"/><path d="M120 639.2h420" stroke="#000" stroke-width="2" fill="none"/><g><use xlink:href="#p" transform="matrix(1,0,0,1,128,588) translate(143.575 14.799999999999999)"/><use xlink:href="#G" transform="matrix(1,0,0,1,128,588) translate(169.575 36.4)"/></g><g><use xlink:href="#z" transform="matrix(1,0,0,1,132,647.2) translate(0 65.3)"/><use xlink:href="#H" transform="matrix(1,0,0,1,132,647.2) translate(15.5 65.3)"/><use xlink:href="#z" transform="matrix(1,0,0,1,132,647.2) translate(0 86.9)"/><use xlink:href="#I" transform="matrix(1,0,0,1,132,647.2) translate(15.5 86.9)"/><use xlink:href="#J" transform="matrix(1,0,0,1,132,647.2) translate(210.14999999999998 86.9)"/></g><path d="M250 858h160v121H250z" stroke="#000" stroke-width="2" fill="#fff"/><g><use xlink:href="#F" transform="matrix(1,0,0,1,258,866) translate(49.55 56.1)"/></g><path d="M330 856v-37.5" stroke="#000" stroke-width="2" fill="none"/><path d="M331 857h-2v-1.03h2z"/><path d="M330 803.24l4.64 14.26h-9.28z" stroke="#000" stroke-width="2"/><path d="M411.7 917.78l654.52-684.92" stroke="#000" stroke-width="2" fill="none"/><path d="M412.43 918.45l-1.43 1.5v-2.87z"/><path d="M1076.76 221.82l-6.5 13.52-6.7-6.4z" stroke="#000" stroke-width="2"/><path d="M411.8 917.9l652.5-497.68" stroke="#000" stroke-width="2" fill="none"/><path d="M412.42 918.67l-1.42 1.1v-2.53l.2-.16z"/><path d="M1076.43 410.96l-8.53 12.34-5.63-7.37z" stroke="#000" stroke-width="2"/><defs><path d="M30-248c87 1 191-15 191 75 0 78-77 80-158 76V0H30v-248zm33 125c57 0 124 11 124-50 0-59-68-47-124-48v98" id="K"/><path d="M141-36C126-15 110 5 73 4 37 3 15-17 15-53c-1-64 63-63 125-63 3-35-9-54-41-54-24 1-41 7-42 31l-33-3c5-37 33-52 76-52 45 0 72 20 72 64v82c-1 20 7 32 28 27v20c-31 9-61-2-59-35zM48-53c0 20 12 33 32 33 41-3 63-29 60-74-43 2-92-5-92 41" id="L"/><path d="M96-169c-40 0-48 33-48 73s9 75 48 75c24 0 41-14 43-38l32 2c-6 37-31 61-74 61-59 0-76-41-82-99-10-93 101-131 147-64 4 7 5 14 7 22l-32 3c-4-21-16-35-41-35" id="M"/><path d="M143 0L79-87 56-68V0H24v-261h32v163l83-92h37l-77 82L181 0h-38" id="N"/><path d="M177-190C167-65 218 103 67 71c-23-6-38-20-44-43l32-5c15 47 100 32 89-28v-30C133-14 115 1 83 1 29 1 15-40 15-95c0-56 16-97 71-98 29-1 48 16 59 35 1-10 0-23 2-32h30zM94-22c36 0 50-32 50-73 0-42-14-75-50-75-39 0-46 34-46 75s6 73 46 73" id="O"/><path d="M100-194c63 0 86 42 84 106H49c0 40 14 67 53 68 26 1 43-12 49-29l28 8c-11 28-37 45-77 45C44 4 14-33 15-96c1-61 26-98 85-98zm52 81c6-60-76-77-97-28-3 7-6 17-6 28h103" id="P"/><g id="a"><use transform="matrix(0.05,0,0,0.05,0,0)" xlink:href="#K"/><use transform="matrix(0.05,0,0,0.05,12,0)" xlink:href="#L"/><use transform="matrix(0.05,0,0,0.05,22,0)" xlink:href="#M"/><use transform="matrix(0.05,0,0,0.05,31,0)" xlink:href="#N"/><use transform="matrix(0.05,0,0,0.05,40,0)" xlink:href="#L"/><use transform="matrix(0.05,0,0,0.05,50,0)" xlink:href="#O"/><use transform="matrix(0.05,0,0,0.05,60,0)" xlink:href="#P"/></g><path d="M33-154v-36h34v36H33zM33 0v-36h34V0H33" id="Q"/><use transform="matrix(0.05,0,0,0.05,0,0)" xlink:href="#Q" id="b"/><path d="M240 0l2-218c-23 76-54 145-80 218h-23L58-218 59 0H30v-248h44l77 211c21-75 51-140 76-211h43V0h-30" id="R"/><path d="M100-194c62-1 85 37 85 99 1 63-27 99-86 99S16-35 15-95c0-66 28-99 85-99zM99-20c44 1 53-31 53-75 0-43-8-75-51-75s-53 32-53 75 10 74 51 75" id="S"/><path d="M85-194c31 0 48 13 60 33l-1-100h32l1 261h-30c-2-10 0-23-3-31C134-8 116 4 85 4 32 4 16-35 15-94c0-66 23-100 70-100zm9 24c-40 0-46 34-46 75 0 40 6 74 45 74 42 0 51-32 51-76 0-42-9-74-50-73" id="T"/><path d="M24 0v-261h32V0H24" id="U"/><g id="c"><use transform="matrix(0.05,0,0,0.05,0,0)" xlink:href="#R"/><use transform="matrix(0.05,0,0,0.05,14.950000000000001,0)" xlink:href="#S"/><use transform="matrix(0.05,0,0,0.05,24.950000000000003,0)" xlink:href="#T"/><use transform="matrix(0.05,0,0,0.05,34.95,0)" xlink:href="#P"/><use transform="matrix(0.05,0,0,0.05,44.95,0)" xlink:href="#U"/></g><path d="M212-179c-10-28-35-45-73-45-59 0-87 40-87 99 0 60 29 101 89 101 43 0 62-24 78-52l27 14C228-24 195 4 139 4 59 4 22-46 18-125c-6-104 99-153 187-111 19 9 31 26 39 46" id="V"/><path d="M84 4C-5 8 30-112 23-190h32v120c0 31 7 50 39 49 72-2 45-101 50-169h31l1 190h-30c-1-10 1-25-2-33-11 22-28 36-60 37" id="W"/><path d="M135-143c-3-34-86-38-87 0 15 53 115 12 119 90S17 21 10-45l28-5c4 36 97 45 98 0-10-56-113-15-118-90-4-57 82-63 122-42 12 7 21 19 24 35" id="X"/><path d="M59-47c-2 24 18 29 38 22v24C64 9 27 4 27-40v-127H5v-23h24l9-43h21v43h35v23H59v120" id="Y"/><path d="M210-169c-67 3-38 105-44 169h-31v-121c0-29-5-50-35-48C34-165 62-65 56 0H25l-1-190h30c1 10-1 24 2 32 10-44 99-50 107 0 11-21 27-35 58-36 85-2 47 119 55 194h-31v-121c0-29-5-49-35-48" id="Z"/><path d="M114-163C36-179 61-72 57 0H25l-1-190h30c1 12-1 29 2 39 6-27 23-49 58-41v29" id="aa"/><g id="d"><use transform="matrix(0.05,0,0,0.05,0,0)" xlink:href="#V"/><use transform="matrix(0.05,0,0,0.05,12.950000000000001,0)" xlink:href="#W"/><use transform="matrix(0.05,0,0,0.05,22.950000000000003,0)" xlink:href="#X"/><use transform="matrix(0.05,0,0,0.05,31.950000000000003,0)" xlink:href="#Y"/><use transform="matrix(0.05,0,0,0.05,36.95,0)" xlink:href="#S"/><use transform="matrix(0.05,0,0,0.05,46.95,0)" xlink:href="#Z"/><use transform="matrix(0.05,0,0,0.05,61.900000000000006,0)" xlink:href="#P"/><use transform="matrix(0.05,0,0,0.05,71.9,0)" xlink:href="#aa"/></g><path d="M16-82v-28h88v28H16" id="ab"/><use transform="matrix(0.05,0,0,0.05,0,0)" xlink:href="#ab" id="e"/><path d="M24-231v-30h32v30H24zM24 0v-190h32V0H24" id="ac"/><path d="M117-194c89-4 53 116 60 194h-32v-121c0-31-8-49-39-48C34-167 62-67 57 0H25l-1-190h30c1 10-1 24 2 32 11-22 29-35 61-36" id="ad"/><g id="f"><use transform="matrix(0.05,0,0,0.05,0,0)" xlink:href="#ac"/><use transform="matrix(0.05,0,0,0.05,3.95,0)" xlink:href="#T"/><use transform="matrix(0.05,0,0,0.05,13.949999999999998,0)" xlink:href="#Q"/><use transform="matrix(0.05,0,0,0.05,18.95,0)" xlink:href="#ac"/><use transform="matrix(0.05,0,0,0.05,22.9,0)" xlink:href="#ad"/><use transform="matrix(0.05,0,0,0.05,32.9,0)" xlink:href="#Y"/></g><path d="M185-189c-5-48-123-54-124 2 14 75 158 14 163 119 3 78-121 87-175 55-17-10-28-26-33-46l33-7c5 56 141 63 141-1 0-78-155-14-162-118-5-82 145-84 179-34 5 7 8 16 11 25" id="ae"/><g id="g"><use transform="matrix(0.05,0,0,0.05,0,0)" xlink:href="#ad"/><use transform="matrix(0.05,0,0,0.05,10,0)" xlink:href="#L"/><use transform="matrix(0.05,0,0,0.05,20,0)" xlink:href="#Z"/><use transform="matrix(0.05,0,0,0.05,34.95,0)" xlink:href="#P"/><use transform="matrix(0.05,0,0,0.05,44.95,0)" xlink:href="#Q"/><use transform="matrix(0.05,0,0,0.05,49.95,0)" xlink:href="#ae"/><use transform="matrix(0.05,0,0,0.05,61.95,0)" xlink:href="#Y"/><use transform="matrix(0.05,0,0,0.05,66.95,0)" xlink:href="#aa"/><use transform="matrix(0.05,0,0,0.05,72.9,0)" xlink:href="#ac"/><use transform="matrix(0.05,0,0,0.05,76.85000000000001,0)" xlink:href="#ad"/><use transform="matrix(0.05,0,0,0.05,86.85000000000001,0)" xlink:href="#O"/></g><path d="M0 4l72-265h28L28 4H0" id="af"/><path d="M143 4C61 4 22-44 18-125c-5-107 100-154 193-111 17 8 29 25 37 43l-32 9c-13-25-37-40-76-40-61 0-88 39-88 99 0 61 29 100 91 101 35 0 62-11 79-27v-45h-74v-28h105v86C228-13 192 4 143 4" id="ag"/><g id="h"><use transform="matrix(0.05,0,0,0.05,0,0)" xlink:href="#af"/><use transform="matrix(0.05,0,0,0.05,5,0)" xlink:href="#af"/><use transform="matrix(0.05,0,0,0.05,10,0)" xlink:href="#ag"/><use transform="matrix(0.05,0,0,0.05,24,0)" xlink:href="#P"/><use transform="matrix(0.05,0,0,0.05,34,0)" xlink:href="#Y"/><use transform="matrix(0.05,0,0,0.05,39,0)" xlink:href="#Y"/><use transform="matrix(0.05,0,0,0.05,44,0)" xlink:href="#P"/><use transform="matrix(0.05,0,0,0.05,54,0)" xlink:href="#aa"/></g><path d="M234-2c-28 10-62 0-77-18C117 19 8 12 13-65c3-43 29-61 60-76-25-40-17-114 47-108 35 3 59 15 59 50 0 44-40 53-71 69 14 26 32 50 51 72 14-21 24-43 30-72l26 8c-9 33-21 57-38 82 13 13 33 22 57 15v23zM97-151c25-10 52-18 56-48-1-18-13-29-33-29-42 0-39 50-23 77zM42-66c-3 51 71 58 98 28-20-24-41-51-56-80-23 10-40 24-42 52" id="ah"/><use transform="matrix(0.05,0,0,0.05,0,0)" xlink:href="#ah" id="i"/><g id="j"><use transform="matrix(0.05,0,0,0.05,0,0)" xlink:href="#X"/><use transform="matrix(0.05,0,0,0.05,9,0)" xlink:href="#P"/><use transform="matrix(0.05,0,0,0.05,19,0)" xlink:href="#Y"/><use transform="matrix(0.05,0,0,0.05,24,0)" xlink:href="#Y"/><use transform="matrix(0.05,0,0,0.05,29,0)" xlink:href="#P"/><use transform="matrix(0.05,0,0,0.05,39,0)" xlink:href="#aa"/></g><g id="k"><use transform="matrix(0.05,0,0,0.05,0,0)" xlink:href="#af"/><use transform="matrix(0.05,0,0,0.05,5,0)" xlink:href="#af"/><use transform="matrix(0.05,0,0,0.05,10,0)" xlink:href="#Y"/><use transform="matrix(0.05,0,0,0.05,15,0)" xlink:href="#S"/><use transform="matrix(0.05,0,0,0.05,25,0)" xlink:href="#ae"/><use transform="matrix(0.05,0,0,0.05,37,0)" xlink:href="#Y"/><use transform="matrix(0.05,0,0,0.05,42,0)" xlink:href="#aa"/><use transform="matrix(0.05,0,0,0.05,47.95,0)" xlink:href="#ac"/><use transform="matrix(0.05,0,0,0.05,51.900000000000006,0)" xlink:href="#ad"/><use transform="matrix(0.05,0,0,0.05,61.900000000000006,0)" xlink:href="#O"/></g><path d="M205 0l-28-72H64L36 0H1l101-248h38L239 0h-34zm-38-99l-47-123c-12 45-31 82-46 123h93" id="ai"/><g id="l"><use transform="matrix(0.05,0,0,0.05,0,0)" xlink:href="#ai"/><use transform="matrix(0.05,0,0,0.05,12,0)" xlink:href="#M"/><use transform="matrix(0.05,0,0,0.05,21,0)" xlink:href="#M"/><use transform="matrix(0.05,0,0,0.05,30,0)" xlink:href="#S"/><use transform="matrix(0.05,0,0,0.05,40,0)" xlink:href="#W"/><use transform="matrix(0.05,0,0,0.05,50,0)" xlink:href="#ad"/><use transform="matrix(0.05,0,0,0.05,60,0)" xlink:href="#Y"/></g><path d="M190 0L58-211 59 0H30v-248h39L202-35l-2-213h31V0h-41" id="aj"/><path d="M115-194c53 0 69 39 70 98 0 66-23 100-70 100C84 3 66-7 56-30L54 0H23l1-261h32v101c10-23 28-34 59-34zm-8 174c40 0 45-34 45-75 0-40-5-75-45-74-42 0-51 32-51 76 0 43 10 73 51 73" id="ak"/><g id="m"><use transform="matrix(0.05,0,0,0.05,0,0)" xlink:href="#L"/><use transform="matrix(0.05,0,0,0.05,10,0)" xlink:href="#M"/><use transform="matrix(0.05,0,0,0.05,19,0)" xlink:href="#M"/><use transform="matrix(0.05,0,0,0.05,28,0)" xlink:href="#S"/><use transform="matrix(0.05,0,0,0.05,38,0)" xlink:href="#W"/><use transform="matrix(0.05,0,0,0.05,48,0)" xlink:href="#ad"/><use transform="matrix(0.05,0,0,0.05,58,0)" xlink:href="#Y"/><use transform="matrix(0.05,0,0,0.05,63,0)" xlink:href="#aj"/><use transform="matrix(0.05,0,0,0.05,75.95,0)" xlink:href="#W"/><use transform="matrix(0.05,0,0,0.05,85.95,0)" xlink:href="#Z"/><use transform="matrix(0.05,0,0,0.05,100.9,0)" xlink:href="#ak"/><use transform="matrix(0.05,0,0,0.05,110.9,0)" xlink:href="#P"/><use transform="matrix(0.05,0,0,0.05,120.9,0)" xlink:href="#aa"/><use transform="matrix(0.05,0,0,0.05,126.85000000000001,0)" xlink:href="#Q"/><use transform="matrix(0.05,0,0,0.05,131.85000000000002,0)" xlink:href="#ae"/><use transform="matrix(0.05,0,0,0.05,143.85000000000002,0)" xlink:href="#Y"/><use transform="matrix(0.05,0,0,0.05,148.85000000000002,0)" xlink:href="#aa"/><use transform="matrix(0.05,0,0,0.05,154.8,0)" xlink:href="#ac"/><use transform="matrix(0.05,0,0,0.05,158.75,0)" xlink:href="#ad"/><use transform="matrix(0.05,0,0,0.05,168.75,0)" xlink:href="#O"/></g><g id="n"><use transform="matrix(0.05,0,0,0.05,0,0)" xlink:href="#ak"/><use transform="matrix(0.05,0,0,0.05,10,0)" xlink:href="#L"/><use transform="matrix(0.05,0,0,0.05,20,0)" xlink:href="#U"/><use transform="matrix(0.05,0,0,0.05,23.95,0)" xlink:href="#L"/><use transform="matrix(0.05,0,0,0.05,33.95,0)" xlink:href="#ad"/><use transform="matrix(0.05,0,0,0.05,43.95,0)" xlink:href="#M"/><use transform="matrix(0.05,0,0,0.05,52.95,0)" xlink:href="#P"/><use transform="matrix(0.05,0,0,0.05,62.95,0)" xlink:href="#Q"/><use transform="matrix(0.05,0,0,0.05,67.95,0)" xlink:href="#T"/><use transform="matrix(0.05,0,0,0.05,77.95,0)" xlink:href="#S"/><use transform="matrix(0.05,0,0,0.05,87.95,0)" xlink:href="#W"/><use transform="matrix(0.05,0,0,0.05,97.95,0)" xlink:href="#ak"/><use transform="matrix(0.05,0,0,0.05,107.95,0)" xlink:href="#U"/><use transform="matrix(0.05,0,0,0.05,111.9,0)" xlink:href="#P"/></g><g id="o"><use transform="matrix(0.05,0,0,0.05,0,0)" xlink:href="#T"/><use transform="matrix(0.05,0,0,0.05,10,0)" xlink:href="#L"/><use transform="matrix(0.05,0,0,0.05,20,0)" xlink:href="#S"/></g><path d="M15-91v-56l181-69v40L49-119l147 57v40" id="al"/><path d="M25-224v-37h50v37H25zM25 0v-190h50V0H25" id="am"/><path d="M135-194c87-1 58 113 63 194h-50c-7-57 23-157-34-157-59 0-34 97-39 157H25l-1-190h47c2 12-1 28 3 38 12-26 28-41 61-42" id="an"/><path d="M115-3C79 11 28 4 28-45v-112H4v-33h27l15-45h31v45h36v33H77v99c-1 23 16 31 38 25v30" id="ao"/><path d="M185-48c-13 30-37 53-82 52C43 2 14-33 14-96s30-98 90-98c62 0 83 45 84 108H66c0 31 8 55 39 56 18 0 30-7 34-22zm-45-69c5-46-57-63-70-21-2 6-4 13-4 21h74" id="ap"/><path d="M135-150c-39-12-60 13-60 57V0H25l-1-190h47c2 13-1 29 3 40 6-28 27-53 61-41v41" id="aq"/><path d="M121-226c-27-7-43 5-38 36h38v33H83V0H34v-157H6v-33h28c-9-59 32-81 87-68v32" id="ar"/><path d="M133-34C117-15 103 5 69 4 32 3 11-16 11-54c-1-60 55-63 116-61 1-26-3-47-28-47-18 1-26 9-28 27l-52-2c7-38 36-58 82-57s74 22 75 68l1 82c-1 14 12 18 25 15v27c-30 8-71 5-69-32zm-48 3c29 0 43-24 42-57-32 0-66-3-65 30 0 17 8 27 23 27" id="as"/><path d="M190-63c-7 42-38 67-86 67-59 0-84-38-90-98-12-110 154-137 174-36l-49 2c-2-19-15-32-35-32-30 0-35 28-38 64-6 74 65 87 74 30" id="at"/><path d="M15-22v-40l146-57-146-57v-40l181 69v56" id="au"/><g id="p"><use transform="matrix(0.05,0,0,0.05,0,0)" xlink:href="#al"/><use transform="matrix(0.05,0,0,0.05,10.5,0)" xlink:href="#al"/><use transform="matrix(0.05,0,0,0.05,21,0)" xlink:href="#am"/><use transform="matrix(0.05,0,0,0.05,26,0)" xlink:href="#an"/><use transform="matrix(0.05,0,0,0.05,36.95,0)" xlink:href="#ao"/><use transform="matrix(0.05,0,0,0.05,42.900000000000006,0)" xlink:href="#ap"/><use transform="matrix(0.05,0,0,0.05,52.900000000000006,0)" xlink:href="#aq"/><use transform="matrix(0.05,0,0,0.05,59.900000000000006,0)" xlink:href="#ar"/><use transform="matrix(0.05,0,0,0.05,65.85000000000001,0)" xlink:href="#as"/><use transform="matrix(0.05,0,0,0.05,75.85000000000001,0)" xlink:href="#at"/><use transform="matrix(0.05,0,0,0.05,85.85000000000001,0)" xlink:href="#ap"/><use transform="matrix(0.05,0,0,0.05,95.85000000000001,0)" xlink:href="#au"/><use transform="matrix(0.05,0,0,0.05,106.35000000000001,0)" xlink:href="#au"/></g><path d="M199 0l-22-63H83L61 0H9l90-248h61L250 0h-51zm-33-102l-36-108c-10 38-24 72-36 108h72" id="av"/><path d="M110-194c64 0 96 36 96 99 0 64-35 99-97 99-61 0-95-36-95-99 0-62 34-99 96-99zm-1 164c35 0 45-28 45-65 0-40-10-65-43-65-34 0-45 26-45 65 0 36 10 65 43 65" id="aw"/><path d="M85 4C-2 5 27-109 22-190h50c7 57-23 150 33 157 60-5 35-97 40-157h50l1 190h-47c-2-12 1-28-3-38-12 25-28 42-61 42" id="ax"/><path d="M24-248c120-7 223 5 221 122C244-46 201 0 124 0H24v-248zM76-40c74 7 117-18 117-86 0-67-45-88-117-82v168" id="ay"/><g id="q"><use transform="matrix(0.05,0,0,0.05,0,0)" xlink:href="#av"/><use transform="matrix(0.05,0,0,0.05,12.950000000000001,0)" xlink:href="#at"/><use transform="matrix(0.05,0,0,0.05,22.950000000000003,0)" xlink:href="#at"/><use transform="matrix(0.05,0,0,0.05,32.95,0)" xlink:href="#aw"/><use transform="matrix(0.05,0,0,0.05,43.900000000000006,0)" xlink:href="#ax"/><use transform="matrix(0.05,0,0,0.05,54.85,0)" xlink:href="#an"/><use transform="matrix(0.05,0,0,0.05,65.80000000000001,0)" xlink:href="#ao"/><use transform="matrix(0.05,0,0,0.05,71.75000000000001,0)" xlink:href="#ay"/><use transform="matrix(0.05,0,0,0.05,84.70000000000002,0)" xlink:href="#as"/><use transform="matrix(0.05,0,0,0.05,94.70000000000002,0)" xlink:href="#aw"/></g><path d="M233-177c-1 41-23 64-60 70L243 0h-38l-65-103H63V0H30v-248c88 3 205-21 203 71zM63-129c60-2 137 13 137-47 0-61-80-42-137-45v92" id="az"/><path d="M232-93c-1 65-40 97-104 97C67 4 28-28 28-90v-158h33c8 89-33 224 67 224 102 0 64-133 71-224h33v155" id="aA"/><path d="M30-248c118-7 216 8 213 122C240-48 200 0 122 0H30v-248zM63-27c89 8 146-16 146-99s-60-101-146-95v194" id="aB"/><g id="r"><use transform="matrix(0.05,0,0,0.05,0,0)" xlink:href="#af"/><use transform="matrix(0.05,0,0,0.05,5,0)" xlink:href="#af"/><use transform="matrix(0.05,0,0,0.05,10,0)" xlink:href="#V"/><use transform="matrix(0.05,0,0,0.05,22.950000000000003,0)" xlink:href="#az"/><use transform="matrix(0.05,0,0,0.05,35.900000000000006,0)" xlink:href="#aA"/><use transform="matrix(0.05,0,0,0.05,48.85000000000001,0)" xlink:href="#aB"/></g><path d="M101-234c-31-9-42 10-38 44h38v23H63V0H32v-167H5v-23h27c-7-52 17-82 69-68v24" id="aC"/><path d="M160-131c35 5 61 23 61 61C221 17 115-2 30 0v-248c76 3 177-17 177 60 0 33-19 50-47 57zm-97-11c50-1 110 9 110-42 0-47-63-36-110-37v79zm0 115c55-2 124 14 124-45 0-56-70-42-124-44v89" id="aD"/><path d="M179-190L93 31C79 59 56 82 12 73V49c39 6 53-20 64-50L1-190h34L92-34l54-156h33" id="aE"/><path d="M87 75C49 33 22-17 22-94c0-76 28-126 65-167h31c-38 41-64 92-64 168S80 34 118 75H87" id="aF"/><path d="M33-261c38 41 65 92 65 168S71 34 33 75H2C39 34 66-17 66-93S39-220 2-261h31" id="aG"/><path d="M140-251c81 0 123 46 123 126C263-46 219 4 140 4 59 4 17-45 17-125s42-126 123-126zm0 227c63 0 89-41 89-101s-29-99-89-99c-61 0-89 39-89 99S79-25 140-24" id="aH"/><path d="M115-194c55 1 70 41 70 98S169 2 115 4C84 4 66-9 55-30l1 105H24l-1-265h31l2 30c10-21 28-34 59-34zm-8 174c40 0 45-34 45-75s-6-73-45-74c-42 0-51 32-51 76 0 43 10 73 51 73" id="aI"/><path d="M18-100v-36l175-74v27L42-118l151 64v27" id="aJ"/><path d="M18-27v-27l151-64-151-65v-27l175 74v36" id="aK"/><g id="s"><use transform="matrix(0.05,0,0,0.05,0,0)" xlink:href="#aC"/><use transform="matrix(0.05,0,0,0.05,5,0)" xlink:href="#ac"/><use transform="matrix(0.05,0,0,0.05,8.95,0)" xlink:href="#ad"/><use transform="matrix(0.05,0,0,0.05,18.95,0)" xlink:href="#T"/><use transform="matrix(0.05,0,0,0.05,28.950000000000003,0)" xlink:href="#aD"/><use transform="matrix(0.05,0,0,0.05,40.95,0)" xlink:href="#aE"/><use transform="matrix(0.05,0,0,0.05,49.95,0)" xlink:href="#ai"/><use transform="matrix(0.05,0,0,0.05,61.95,0)" xlink:href="#M"/><use transform="matrix(0.05,0,0,0.05,70.95,0)" xlink:href="#M"/><use transform="matrix(0.05,0,0,0.05,79.95,0)" xlink:href="#S"/><use transform="matrix(0.05,0,0,0.05,89.95,0)" xlink:href="#W"/><use transform="matrix(0.05,0,0,0.05,99.95,0)" xlink:href="#ad"/><use transform="matrix(0.05,0,0,0.05,109.95,0)" xlink:href="#Y"/><use transform="matrix(0.05,0,0,0.05,114.95,0)" xlink:href="#aj"/><use transform="matrix(0.05,0,0,0.05,127.9,0)" xlink:href="#W"/><use transform="matrix(0.05,0,0,0.05,137.9,0)" xlink:href="#Z"/><use transform="matrix(0.05,0,0,0.05,152.85,0)" xlink:href="#ak"/><use transform="matrix(0.05,0,0,0.05,162.85,0)" xlink:href="#P"/><use transform="matrix(0.05,0,0,0.05,172.85,0)" xlink:href="#aa"/><use transform="matrix(0.05,0,0,0.05,178.79999999999998,0)" xlink:href="#aF"/><use transform="matrix(0.05,0,0,0.05,184.74999999999997,0)" xlink:href="#ae"/><use transform="matrix(0.05,0,0,0.05,196.74999999999997,0)" xlink:href="#Y"/><use transform="matrix(0.05,0,0,0.05,201.74999999999997,0)" xlink:href="#aa"/><use transform="matrix(0.05,0,0,0.05,207.69999999999996,0)" xlink:href="#ac"/><use transform="matrix(0.05,0,0,0.05,211.64999999999998,0)" xlink:href="#ad"/><use transform="matrix(0.05,0,0,0.05,221.64999999999998,0)" xlink:href="#O"/><use transform="matrix(0.05,0,0,0.05,231.64999999999998,0)" xlink:href="#aG"/><use transform="matrix(0.05,0,0,0.05,237.5999999999999,0)" xlink:href="#Q"/><use transform="matrix(0.05,0,0,0.05,242.5999999999999,0)" xlink:href="#aH"/><use transform="matrix(0.05,0,0,0.05,256.5999999999999,0)" xlink:href="#aI"/><use transform="matrix(0.05,0,0,0.05,266.5999999999999,0)" xlink:href="#Y"/><use transform="matrix(0.05,0,0,0.05,271.5999999999999,0)" xlink:href="#ac"/><use transform="matrix(0.05,0,0,0.05,275.5499999999999,0)" xlink:href="#S"/><use transform="matrix(0.05,0,0,0.05,285.5499999999999,0)" xlink:href="#ad"/><use transform="matrix(0.05,0,0,0.05,295.5499999999999,0)" xlink:href="#L"/><use transform="matrix(0.05,0,0,0.05,305.5499999999999,0)" xlink:href="#U"/><use transform="matrix(0.05,0,0,0.05,309.4999999999999,0)" xlink:href="#aJ"/><use transform="matrix(0.05,0,0,0.05,319.9999999999999,0)" xlink:href="#ai"/><use transform="matrix(0.05,0,0,0.05,331.9999999999999,0)" xlink:href="#M"/><use transform="matrix(0.05,0,0,0.05,340.9999999999999,0)" xlink:href="#M"/><use transform="matrix(0.05,0,0,0.05,349.9999999999999,0)" xlink:href="#S"/><use transform="matrix(0.05,0,0,0.05,359.9999999999999,0)" xlink:href="#W"/><use transform="matrix(0.05,0,0,0.05,369.9999999999999,0)" xlink:href="#ad"/><use transform="matrix(0.05,0,0,0.05,379.9999999999999,0)" xlink:href="#Y"/><use transform="matrix(0.05,0,0,0.05,384.9999999999999,0)" xlink:href="#aK"/></g><path d="M67-125c0 53 21 87 73 88 37 1 54-22 65-47l45 17C233-25 199 4 140 4 58 4 20-42 15-125 8-235 124-281 211-232c18 10 29 29 36 50l-46 12c-8-25-30-41-62-41-52 0-71 34-72 86" id="aL"/><path d="M137-138c1-29-70-34-71-4 15 46 118 7 119 86 1 83-164 76-172 9l43-7c4 19 20 25 44 25 33 8 57-30 24-41C81-84 22-81 20-136c-2-80 154-74 161-7" id="aM"/><path d="M220-157c-53 9-28 100-34 157h-49v-107c1-27-5-49-29-50C55-147 81-57 75 0H25l-1-190h47c2 12-1 28 3 38 10-53 101-56 108 0 13-22 24-43 59-42 82 1 51 116 57 194h-49v-107c-1-25-5-48-29-50" id="aN"/><g id="t"><use transform="matrix(0.05,0,0,0.05,0,0)" xlink:href="#aL"/><use transform="matrix(0.05,0,0,0.05,12.950000000000001,0)" xlink:href="#ax"/><use transform="matrix(0.05,0,0,0.05,23.900000000000002,0)" xlink:href="#aM"/><use transform="matrix(0.05,0,0,0.05,33.900000000000006,0)" xlink:href="#ao"/><use transform="matrix(0.05,0,0,0.05,39.85000000000001,0)" xlink:href="#aw"/><use transform="matrix(0.05,0,0,0.05,50.80000000000001,0)" xlink:href="#aN"/><use transform="matrix(0.05,0,0,0.05,66.80000000000001,0)" xlink:href="#ap"/><use transform="matrix(0.05,0,0,0.05,76.80000000000001,0)" xlink:href="#aq"/><use transform="matrix(0.05,0,0,0.05,83.80000000000001,0)" xlink:href="#ay"/><use transform="matrix(0.05,0,0,0.05,96.75000000000001,0)" xlink:href="#as"/><use transform="matrix(0.05,0,0,0.05,106.75,0)" xlink:href="#aw"/></g><g id="u"><use transform="matrix(0.05,0,0,0.05,0,0)" xlink:href="#aC"/><use transform="matrix(0.05,0,0,0.05,5,0)" xlink:href="#ac"/><use transform="matrix(0.05,0,0,0.05,8.95,0)" xlink:href="#ad"/><use transform="matrix(0.05,0,0,0.05,18.95,0)" xlink:href="#T"/><use transform="matrix(0.05,0,0,0.05,28.950000000000003,0)" xlink:href="#aD"/><use transform="matrix(0.05,0,0,0.05,40.95,0)" xlink:href="#aE"/><use transform="matrix(0.05,0,0,0.05,49.95,0)" xlink:href="#V"/><use transform="matrix(0.05,0,0,0.05,62.900000000000006,0)" xlink:href="#W"/><use transform="matrix(0.05,0,0,0.05,72.9,0)" xlink:href="#X"/><use transform="matrix(0.05,0,0,0.05,81.9,0)" xlink:href="#Y"/><use transform="matrix(0.05,0,0,0.05,86.9,0)" xlink:href="#S"/><use transform="matrix(0.05,0,0,0.05,96.9,0)" xlink:href="#Z"/><use transform="matrix(0.05,0,0,0.05,111.85000000000001,0)" xlink:href="#P"/><use transform="matrix(0.05,0,0,0.05,121.85000000000001,0)" xlink:href="#aa"/><use transform="matrix(0.05,0,0,0.05,127.80000000000001,0)" xlink:href="#aj"/><use transform="matrix(0.05,0,0,0.05,140.75,0)" xlink:href="#L"/><use transform="matrix(0.05,0,0,0.05,150.75,0)" xlink:href="#Z"/><use transform="matrix(0.05,0,0,0.05,165.7,0)" xlink:href="#P"/><use transform="matrix(0.05,0,0,0.05,175.7,0)" xlink:href="#aF"/><use transform="matrix(0.05,0,0,0.05,181.64999999999998,0)" xlink:href="#ae"/><use transform="matrix(0.05,0,0,0.05,193.64999999999998,0)" xlink:href="#Y"/><use transform="matrix(0.05,0,0,0.05,198.64999999999998,0)" xlink:href="#aa"/><use transform="matrix(0.05,0,0,0.05,204.59999999999997,0)" xlink:href="#ac"/><use transform="matrix(0.05,0,0,0.05,208.54999999999995,0)" xlink:href="#ad"/><use transform="matrix(0.05,0,0,0.05,218.54999999999995,0)" xlink:href="#O"/><use transform="matrix(0.05,0,0,0.05,228.54999999999995,0)" xlink:href="#aG"/><use transform="matrix(0.05,0,0,0.05,234.49999999999991,0)" xlink:href="#Q"/><use transform="matrix(0.05,0,0,0.05,239.49999999999991,0)" xlink:href="#V"/><use transform="matrix(0.05,0,0,0.05,252.44999999999993,0)" xlink:href="#S"/><use transform="matrix(0.05,0,0,0.05,262.44999999999993,0)" xlink:href="#U"/><use transform="matrix(0.05,0,0,0.05,266.3999999999999,0)" xlink:href="#U"/><use transform="matrix(0.05,0,0,0.05,270.3499999999999,0)" xlink:href="#P"/><use transform="matrix(0.05,0,0,0.05,280.3499999999999,0)" xlink:href="#M"/><use transform="matrix(0.05,0,0,0.05,289.3499999999999,0)" xlink:href="#Y"/><use transform="matrix(0.05,0,0,0.05,294.3499999999999,0)" xlink:href="#ac"/><use transform="matrix(0.05,0,0,0.05,298.2999999999999,0)" xlink:href="#S"/><use transform="matrix(0.05,0,0,0.05,308.2999999999999,0)" xlink:href="#ad"/><use transform="matrix(0.05,0,0,0.05,318.2999999999999,0)" xlink:href="#aJ"/><use transform="matrix(0.05,0,0,0.05,328.7999999999999,0)" xlink:href="#V"/><use transform="matrix(0.05,0,0,0.05,341.7499999999999,0)" xlink:href="#W"/><use transform="matrix(0.05,0,0,0.05,351.7499999999999,0)" xlink:href="#X"/><use transform="matrix(0.05,0,0,0.05,360.7499999999999,0)" xlink:href="#Y"/><use transform="matrix(0.05,0,0,0.05,365.7499999999999,0)" xlink:href="#S"/><use transform="matrix(0.05,0,0,0.05,375.7499999999999,0)" xlink:href="#Z"/><use transform="matrix(0.05,0,0,0.05,390.6999999999999,0)" xlink:href="#P"/><use transform="matrix(0.05,0,0,0.05,400.6999999999999,0)" xlink:href="#aa"/><use transform="matrix(0.05,0,0,0.05,406.64999999999986,0)" xlink:href="#aK"/></g><path d="M33 0v-248h34V0H33" id="aO"/><g id="v"><use transform="matrix(0.05,0,0,0.05,0,0)" xlink:href="#ai"/><use transform="matrix(0.05,0,0,0.05,12,0)" xlink:href="#M"/><use transform="matrix(0.05,0,0,0.05,21,0)" xlink:href="#M"/><use transform="matrix(0.05,0,0,0.05,30,0)" xlink:href="#S"/><use transform="matrix(0.05,0,0,0.05,40,0)" xlink:href="#W"/><use transform="matrix(0.05,0,0,0.05,50,0)" xlink:href="#ad"/><use transform="matrix(0.05,0,0,0.05,60,0)" xlink:href="#Y"/><use transform="matrix(0.05,0,0,0.05,65,0)" xlink:href="#aB"/><use transform="matrix(0.05,0,0,0.05,77.95,0)" xlink:href="#L"/><use transform="matrix(0.05,0,0,0.05,87.95,0)" xlink:href="#S"/><use transform="matrix(0.05,0,0,0.05,97.95,0)" xlink:href="#aO"/><use transform="matrix(0.05,0,0,0.05,102.95,0)" xlink:href="#Z"/><use transform="matrix(0.05,0,0,0.05,117.9,0)" xlink:href="#aI"/><use transform="matrix(0.05,0,0,0.05,127.9,0)" xlink:href="#U"/></g><g id="w"><use transform="matrix(0.05,0,0,0.05,0,0)" xlink:href="#V"/><use transform="matrix(0.05,0,0,0.05,12.950000000000001,0)" xlink:href="#W"/><use transform="matrix(0.05,0,0,0.05,22.950000000000003,0)" xlink:href="#X"/><use transform="matrix(0.05,0,0,0.05,31.950000000000003,0)" xlink:href="#Y"/><use transform="matrix(0.05,0,0,0.05,36.95,0)" xlink:href="#S"/><use transform="matrix(0.05,0,0,0.05,46.95,0)" xlink:href="#Z"/><use transform="matrix(0.05,0,0,0.05,61.900000000000006,0)" xlink:href="#P"/><use transform="matrix(0.05,0,0,0.05,71.9,0)" xlink:href="#aa"/><use transform="matrix(0.05,0,0,0.05,77.85000000000001,0)" xlink:href="#aB"/><use transform="matrix(0.05,0,0,0.05,90.80000000000001,0)" xlink:href="#L"/><use transform="matrix(0.05,0,0,0.05,100.80000000000001,0)" xlink:href="#S"/><use transform="matrix(0.05,0,0,0.05,110.80000000000001,0)" xlink:href="#aO"/><use transform="matrix(0.05,0,0,0.05,115.80000000000001,0)" xlink:href="#Z"/><use transform="matrix(0.05,0,0,0.05,130.75,0)" xlink:href="#aI"/><use transform="matrix(0.05,0,0,0.05,140.75,0)" xlink:href="#U"/></g><path d="M108 0H70L1-190h34L89-25l56-165h34" id="aP"/><g id="x"><use transform="matrix(0.05,0,0,0.05,0,0)" xlink:href="#ae"/><use transform="matrix(0.05,0,0,0.05,12,0)" xlink:href="#P"/><use transform="matrix(0.05,0,0,0.05,22,0)" xlink:href="#aa"/><use transform="matrix(0.05,0,0,0.05,27.950000000000003,0)" xlink:href="#aP"/><use transform="matrix(0.05,0,0,0.05,36.95,0)" xlink:href="#ac"/><use transform="matrix(0.05,0,0,0.05,40.900000000000006,0)" xlink:href="#M"/><use transform="matrix(0.05,0,0,0.05,49.900000000000006,0)" xlink:href="#P"/></g><path d="M136-208V0H84v-208H4v-40h212v40h-80" id="aQ"/><g id="y"><use transform="matrix(0.05,0,0,0.05,0,0)" xlink:href="#aQ"/><use transform="matrix(0.05,0,0,0.05,9.950000000000001,0)" xlink:href="#aq"/><use transform="matrix(0.05,0,0,0.05,16.950000000000003,0)" xlink:href="#as"/><use transform="matrix(0.05,0,0,0.05,26.950000000000003,0)" xlink:href="#an"/><use transform="matrix(0.05,0,0,0.05,37.900000000000006,0)" xlink:href="#aM"/><use transform="matrix(0.05,0,0,0.05,47.900000000000006,0)" xlink:href="#as"/><use transform="matrix(0.05,0,0,0.05,57.900000000000006,0)" xlink:href="#at"/><use transform="matrix(0.05,0,0,0.05,67.9,0)" xlink:href="#ao"/><use transform="matrix(0.05,0,0,0.05,73.85000000000001,0)" xlink:href="#am"/><use transform="matrix(0.05,0,0,0.05,78.85000000000001,0)" xlink:href="#aw"/><use transform="matrix(0.05,0,0,0.05,89.80000000000001,0)" xlink:href="#an"/></g><path d="M118-107v75H92v-75H18v-26h74v-75h26v75h74v26h-74" id="aR"/><use transform="matrix(0.05,0,0,0.05,0,0)" xlink:href="#aR" id="z"/><path d="M68-38c1 34 0 65-14 84H32c9-13 17-26 17-46H33v-38h35" id="aS"/><g id="A"><use transform="matrix(0.05,0,0,0.05,0,0)" xlink:href="#Y"/><use transform="matrix(0.05,0,0,0.05,5,0)" xlink:href="#aa"/><use transform="matrix(0.05,0,0,0.05,10.95,0)" xlink:href="#L"/><use transform="matrix(0.05,0,0,0.05,20.95,0)" xlink:href="#ad"/><use transform="matrix(0.05,0,0,0.05,30.950000000000003,0)" xlink:href="#X"/><use transform="matrix(0.05,0,0,0.05,39.95,0)" xlink:href="#aC"/><use transform="matrix(0.05,0,0,0.05,44.95,0)" xlink:href="#P"/><use transform="matrix(0.05,0,0,0.05,54.95,0)" xlink:href="#aa"/><use transform="matrix(0.05,0,0,0.05,60.900000000000006,0)" xlink:href="#aF"/><use transform="matrix(0.05,0,0,0.05,66.85000000000001,0)" xlink:href="#V"/><use transform="matrix(0.05,0,0,0.05,79.80000000000001,0)" xlink:href="#S"/><use transform="matrix(0.05,0,0,0.05,89.80000000000001,0)" xlink:href="#W"/><use transform="matrix(0.05,0,0,0.05,99.80000000000001,0)" xlink:href="#X"/><use transform="matrix(0.05,0,0,0.05,108.80000000000001,0)" xlink:href="#Y"/><use transform="matrix(0.05,0,0,0.05,113.80000000000001,0)" xlink:href="#S"/><use transform="matrix(0.05,0,0,0.05,123.80000000000001,0)" xlink:href="#Z"/><use transform="matrix(0.05,0,0,0.05,138.75,0)" xlink:href="#P"/><use transform="matrix(0.05,0,0,0.05,148.75,0)" xlink:href="#aa"/><use transform="matrix(0.05,0,0,0.05,154.7,0)" xlink:href="#aO"/><use transform="matrix(0.05,0,0,0.05,159.7,0)" xlink:href="#T"/><use transform="matrix(0.05,0,0,0.05,169.7,0)" xlink:href="#aS"/></g><g id="B"><use transform="matrix(0.05,0,0,0.05,0,0)" xlink:href="#L"/><use transform="matrix(0.05,0,0,0.05,10,0)" xlink:href="#Z"/><use transform="matrix(0.05,0,0,0.05,24.950000000000003,0)" xlink:href="#S"/><use transform="matrix(0.05,0,0,0.05,34.95,0)" xlink:href="#W"/><use transform="matrix(0.05,0,0,0.05,44.95,0)" xlink:href="#ad"/><use transform="matrix(0.05,0,0,0.05,54.95,0)" xlink:href="#Y"/><use transform="matrix(0.05,0,0,0.05,59.95,0)" xlink:href="#aS"/></g><g id="C"><use transform="matrix(0.05,0,0,0.05,0,0)" xlink:href="#aC"/><use transform="matrix(0.05,0,0,0.05,5,0)" xlink:href="#aa"/><use transform="matrix(0.05,0,0,0.05,10.95,0)" xlink:href="#S"/><use transform="matrix(0.05,0,0,0.05,20.95,0)" xlink:href="#Z"/><use transform="matrix(0.05,0,0,0.05,35.9,0)" xlink:href="#ai"/><use transform="matrix(0.05,0,0,0.05,47.9,0)" xlink:href="#M"/><use transform="matrix(0.05,0,0,0.05,56.900000000000006,0)" xlink:href="#M"/><use transform="matrix(0.05,0,0,0.05,65.9,0)" xlink:href="#S"/><use transform="matrix(0.05,0,0,0.05,75.9,0)" xlink:href="#W"/><use transform="matrix(0.05,0,0,0.05,85.9,0)" xlink:href="#ad"/><use transform="matrix(0.05,0,0,0.05,95.9,0)" xlink:href="#Y"/></g><g id="D"><use transform="matrix(0.05,0,0,0.05,0,0)" xlink:href="#aS"/><use transform="matrix(0.05,0,0,0.05,5,0)" xlink:href="#Y"/><use transform="matrix(0.05,0,0,0.05,10,0)" xlink:href="#S"/><use transform="matrix(0.05,0,0,0.05,20,0)" xlink:href="#ai"/><use transform="matrix(0.05,0,0,0.05,32,0)" xlink:href="#M"/><use transform="matrix(0.05,0,0,0.05,41,0)" xlink:href="#M"/><use transform="matrix(0.05,0,0,0.05,50,0)" xlink:href="#S"/><use transform="matrix(0.05,0,0,0.05,60,0)" xlink:href="#W"/><use transform="matrix(0.05,0,0,0.05,70,0)" xlink:href="#ad"/><use transform="matrix(0.05,0,0,0.05,80,0)" xlink:href="#Y"/><use transform="matrix(0.05,0,0,0.05,85,0)" xlink:href="#aG"/><use transform="matrix(0.05,0,0,0.05,90.95,0)" xlink:href="#Q"/><use transform="matrix(0.05,0,0,0.05,95.95,0)" xlink:href="#ak"/><use transform="matrix(0.05,0,0,0.05,105.95,0)" xlink:href="#S"/><use transform="matrix(0.05,0,0,0.05,115.95,0)" xlink:href="#S"/><use transform="matrix(0.05,0,0,0.05,125.95,0)" xlink:href="#U"/><use transform="matrix(0.05,0,0,0.05,129.9,0)" xlink:href="#P"/><use transform="matrix(0.05,0,0,0.05,139.9,0)" xlink:href="#L"/><use transform="matrix(0.05,0,0,0.05,149.9,0)" xlink:href="#ad"/></g><path d="M137 0h-34L2-248h35l83 218 83-218h36" id="aT"/><g id="E"><use transform="matrix(0.05,0,0,0.05,0,0)" xlink:href="#aT"/><use transform="matrix(0.05,0,0,0.05,11,0)" xlink:href="#P"/><use transform="matrix(0.05,0,0,0.05,21,0)" xlink:href="#aa"/><use transform="matrix(0.05,0,0,0.05,26.950000000000003,0)" xlink:href="#ac"/><use transform="matrix(0.05,0,0,0.05,30.899999999999995,0)" xlink:href="#aC"/><use transform="matrix(0.05,0,0,0.05,35.9,0)" xlink:href="#aE"/><use transform="matrix(0.05,0,0,0.05,44.9,0)" xlink:href="#ai"/><use transform="matrix(0.05,0,0,0.05,56.900000000000006,0)" xlink:href="#M"/><use transform="matrix(0.05,0,0,0.05,65.9,0)" xlink:href="#M"/><use transform="matrix(0.05,0,0,0.05,74.9,0)" xlink:href="#S"/><use transform="matrix(0.05,0,0,0.05,84.9,0)" xlink:href="#W"/><use transform="matrix(0.05,0,0,0.05,94.9,0)" xlink:href="#ad"/><use transform="matrix(0.05,0,0,0.05,104.9,0)" xlink:href="#Y"/><use transform="matrix(0.05,0,0,0.05,109.9,0)" xlink:href="#aF"/><use transform="matrix(0.05,0,0,0.05,115.85000000000001,0)" xlink:href="#aI"/><use transform="matrix(0.05,0,0,0.05,125.85000000000001,0)" xlink:href="#L"/><use transform="matrix(0.05,0,0,0.05,135.85000000000002,0)" xlink:href="#aa"/><use transform="matrix(0.05,0,0,0.05,141.8,0)" xlink:href="#L"/><use transform="matrix(0.05,0,0,0.05,151.8,0)" xlink:href="#Z"/><use transform="matrix(0.05,0,0,0.05,166.75,0)" xlink:href="#X"/><use transform="matrix(0.05,0,0,0.05,175.75,0)" xlink:href="#aG"/><use transform="matrix(0.05,0,0,0.05,181.7,0)" xlink:href="#Q"/><use transform="matrix(0.05,0,0,0.05,186.7,0)" xlink:href="#ak"/><use transform="matrix(0.05,0,0,0.05,196.7,0)" xlink:href="#S"/><use transform="matrix(0.05,0,0,0.05,206.69999999999996,0)" xlink:href="#S"/><use transform="matrix(0.05,0,0,0.05,216.69999999999996,0)" xlink:href="#U"/><use transform="matrix(0.05,0,0,0.05,220.64999999999998,0)" xlink:href="#P"/><use transform="matrix(0.05,0,0,0.05,230.64999999999998,0)" xlink:href="#L"/><use transform="matrix(0.05,0,0,0.05,240.64999999999998,0)" xlink:href="#ad"/></g><g id="F"><use transform="matrix(0.05,0,0,0.05,0,0)" xlink:href="#V"/><use transform="matrix(0.05,0,0,0.05,12.950000000000001,0)" xlink:href="#U"/><use transform="matrix(0.05,0,0,0.05,16.900000000000002,0)" xlink:href="#L"/><use transform="matrix(0.05,0,0,0.05,26.900000000000002,0)" xlink:href="#X"/><use transform="matrix(0.05,0,0,0.05,35.900000000000006,0)" xlink:href="#X"/></g><path d="M76-208v77h127v40H76V0H24v-248h183v40H76" id="aU"/><path d="M123 10C108 53 80 86 19 72V37c35 8 53-11 59-39L3-190h52l48 148c12-52 28-100 44-148h51" id="aV"/><g id="G"><use transform="matrix(0.05,0,0,0.05,0,0)" xlink:href="#aU"/><use transform="matrix(0.05,0,0,0.05,10.950000000000001,0)" xlink:href="#as"/><use transform="matrix(0.05,0,0,0.05,20.950000000000003,0)" xlink:href="#at"/><use transform="matrix(0.05,0,0,0.05,30.950000000000003,0)" xlink:href="#ao"/><use transform="matrix(0.05,0,0,0.05,36.900000000000006,0)" xlink:href="#aw"/><use transform="matrix(0.05,0,0,0.05,47.85000000000001,0)" xlink:href="#aq"/><use transform="matrix(0.05,0,0,0.05,54.85,0)" xlink:href="#aV"/></g><g id="H"><use transform="matrix(0.05,0,0,0.05,0,0)" xlink:href="#M"/><use transform="matrix(0.05,0,0,0.05,9,0)" xlink:href="#aa"/><use transform="matrix(0.05,0,0,0.05,14.949999999999998,0)" xlink:href="#P"/><use transform="matrix(0.05,0,0,0.05,24.95,0)" xlink:href="#L"/><use transform="matrix(0.05,0,0,0.05,34.95,0)" xlink:href="#Y"/><use transform="matrix(0.05,0,0,0.05,39.95,0)" xlink:href="#P"/><use transform="matrix(0.05,0,0,0.05,49.95,0)" xlink:href="#ai"/><use transform="matrix(0.05,0,0,0.05,61.95,0)" xlink:href="#M"/><use transform="matrix(0.05,0,0,0.05,70.95,0)" xlink:href="#M"/><use transform="matrix(0.05,0,0,0.05,79.95,0)" xlink:href="#S"/><use transform="matrix(0.05,0,0,0.05,89.95,0)" xlink:href="#W"/><use transform="matrix(0.05,0,0,0.05,99.95,0)" xlink:href="#ad"/><use transform="matrix(0.05,0,0,0.05,109.95,0)" xlink:href="#Y"/><use transform="matrix(0.05,0,0,0.05,114.95,0)" xlink:href="#aF"/><use transform="matrix(0.05,0,0,0.05,120.9,0)" xlink:href="#aG"/><use transform="matrix(0.05,0,0,0.05,126.85000000000001,0)" xlink:href="#Q"/><use transform="matrix(0.05,0,0,0.05,131.85000000000002,0)" xlink:href="#aH"/><use transform="matrix(0.05,0,0,0.05,145.85000000000002,0)" xlink:href="#aI"/><use transform="matrix(0.05,0,0,0.05,155.85000000000002,0)" xlink:href="#Y"/><use transform="matrix(0.05,0,0,0.05,160.85000000000002,0)" xlink:href="#ac"/><use transform="matrix(0.05,0,0,0.05,164.8,0)" xlink:href="#S"/><use transform="matrix(0.05,0,0,0.05,174.8,0)" xlink:href="#ad"/><use transform="matrix(0.05,0,0,0.05,184.8,0)" xlink:href="#L"/><use transform="matrix(0.05,0,0,0.05,194.8,0)" xlink:href="#U"/><use transform="matrix(0.05,0,0,0.05,198.75,0)" xlink:href="#aJ"/><use transform="matrix(0.05,0,0,0.05,209.25,0)" xlink:href="#ai"/><use transform="matrix(0.05,0,0,0.05,221.25,0)" xlink:href="#M"/><use transform="matrix(0.05,0,0,0.05,230.25,0)" xlink:href="#M"/><use transform="matrix(0.05,0,0,0.05,239.25,0)" xlink:href="#S"/><use transform="matrix(0.05,0,0,0.05,249.25,0)" xlink:href="#W"/><use transform="matrix(0.05,0,0,0.05,259.25,0)" xlink:href="#ad"/><use transform="matrix(0.05,0,0,0.05,269.25,0)" xlink:href="#Y"/><use transform="matrix(0.05,0,0,0.05,274.25,0)" xlink:href="#aK"/></g><g id="I"><use transform="matrix(0.05,0,0,0.05,0,0)" xlink:href="#M"/><use transform="matrix(0.05,0,0,0.05,9,0)" xlink:href="#aa"/><use transform="matrix(0.05,0,0,0.05,14.949999999999998,0)" xlink:href="#P"/><use transform="matrix(0.05,0,0,0.05,24.95,0)" xlink:href="#L"/><use transform="matrix(0.05,0,0,0.05,34.95,0)" xlink:href="#Y"/><use transform="matrix(0.05,0,0,0.05,39.95,0)" xlink:href="#P"/><use transform="matrix(0.05,0,0,0.05,49.95,0)" xlink:href="#V"/><use transform="matrix(0.05,0,0,0.05,62.900000000000006,0)" xlink:href="#W"/><use transform="matrix(0.05,0,0,0.05,72.9,0)" xlink:href="#X"/><use transform="matrix(0.05,0,0,0.05,81.9,0)" xlink:href="#Y"/><use transform="matrix(0.05,0,0,0.05,86.9,0)" xlink:href="#S"/><use transform="matrix(0.05,0,0,0.05,96.9,0)" xlink:href="#Z"/><use transform="matrix(0.05,0,0,0.05,111.85000000000001,0)" xlink:href="#P"/><use transform="matrix(0.05,0,0,0.05,121.85000000000001,0)" xlink:href="#aa"/><use transform="matrix(0.05,0,0,0.05,127.80000000000001,0)" xlink:href="#aF"/><use transform="matrix(0.05,0,0,0.05,133.75,0)" xlink:href="#ad"/><use transform="matrix(0.05,0,0,0.05,143.75,0)" xlink:href="#L"/><use transform="matrix(0.05,0,0,0.05,153.75,0)" xlink:href="#Z"/><use transform="matrix(0.05,0,0,0.05,168.7,0)" xlink:href="#P"/><use transform="matrix(0.05,0,0,0.05,178.7,0)" xlink:href="#aG"/><use transform="matrix(0.05,0,0,0.05,184.64999999999998,0)" xlink:href="#Q"/></g><g id="J"><use transform="matrix(0.05,0,0,0.05,0,0)" xlink:href="#aH"/><use transform="matrix(0.05,0,0,0.05,14,0)" xlink:href="#aI"/><use transform="matrix(0.05,0,0,0.05,24,0)" xlink:href="#Y"/><use transform="matrix(0.05,0,0,0.05,29,0)" xlink:href="#ac"/><use transform="matrix(0.05,0,0,0.05,32.95,0)" xlink:href="#S"/><use transform="matrix(0.05,0,0,0.05,42.95,0)" xlink:href="#ad"/><use transform="matrix(0.05,0,0,0.05,52.95,0)" xlink:href="#L"/><use transform="matrix(0.05,0,0,0.05,62.95,0)" xlink:href="#U"/><use transform="matrix(0.05,0,0,0.05,66.9,0)" xlink:href="#aJ"/><use transform="matrix(0.05,0,0,0.05,77.4,0)" xlink:href="#V"/><use transform="matrix(0.05,0,0,0.05,90.35000000000001,0)" xlink:href="#W"/><use transform="matrix(0.05,0,0,0.05,100.35000000000001,0)" xlink:href="#X"/><use transform="matrix(0.05,0,0,0.05,109.35000000000001,0)" xlink:href="#Y"/><use transform="matrix(0.05,0,0,0.05,114.35000000000001,0)" xlink:href="#S"/><use transform="matrix(0.05,0,0,0.05,124.35000000000001,0)" xlink:href="#Z"/><use transform="matrix(0.05,0,0,0.05,139.3,0)" xlink:href="#P"/><use transform="matrix(0.05,0,0,0.05,149.3,0)" xlink:href="#aa"/><use transform="matrix(0.05,0,0,0.05,155.25,0)" xlink:href="#aK"/></g></defs></g></svg>